# xmcd
#
# Track frame offsets: 
#        150
#        8990
#        25177
#        38650
#        56800
#        68005
#        79192
#        93600
#        105175
#        117700
#        131355
#        148815
#        155745
#        164210
#        178340
#        188915
#        197075
#        206332
#        216840
#        224975
#        234157
#        246865
#        256525
#        263882
#        275387
#        294327
#        301910
#        320435
#        328625
#
# Disc length: 4517 seconds
#
# Revision: 2
# Processed by: cddbd v1.5.2PL0 Copyright (c) Steve Scherf et al.
# Submitted via: ExactAudioCopy v0.95b4
#
DISCID=b511a31d
DTITLE=Sons Of The Pioneers - Songs Of The Prairie, The Standard Trans
DTITLE=criptions Disc 3
DYEAR=1900
DGENRE=
TTITLE0=Hills Of Old Kentucky 1934
TTITLE1=Apple Blossom Time In Normandy 1934
TTITLE2=Cabin In The Lane 1934
TTITLE3=Carry Me Back To Old Virginny 1934
TTITLE4=Home In Wyoming 1934
TTITLE5=Open Up Dem Pearly Gates 1934
TTITLE6=Dem Golden Bells 1934
TTITLE7=Hadie Brown 1934
TTITLE8=My Old Kentucky Home 1934
TTITLE9=Cowboy's Dance Song 1934
TTITLE10=My Pretty Quadroon 1934
TTITLE11=Way Out West In Kansas 1934
TTITLE12=Giddy Ap Napoleon 1934
TTITLE13=Abdul Abulbul Amir 1934
TTITLE14=Preacher And The Bear 1934
TTITLE15=Threw It Out The Window 1934
TTITLE16=Rufus Rastus Johnson Brown 1934
TTITLE17=Casey Jones 1934
TTITLE18=Wait For The Wagon 1934
TTITLE19=Oh, Mona 1934
TTITLE20=Go Long Mule 1934
TTITLE21=Golden Train 1934
TTITLE22=Texas Crapshooter 1934
TTITLE23=Eleven More Months And Ten More Days 1934
TTITLE24=Somewhere In Old Wyoming 1934
TTITLE25=Seaside Schottische 1934
TTITLE26=Little Annie Roonie 1934
TTITLE27=The Big Corral 1934
TTITLE28=at the end of the lane 1934
EXTD=
EXTT0=
EXTT1=
EXTT2=
EXTT3=
EXTT4=
EXTT5=
EXTT6=
EXTT7=
EXTT8=
EXTT9=
EXTT10=
EXTT11=
EXTT12=
EXTT13=
EXTT14=
EXTT15=
EXTT16=
EXTT17=
EXTT18=
EXTT19=
EXTT20=
EXTT21=
EXTT22=
EXTT23=
EXTT24=
EXTT25=
EXTT26=
EXTT27=
EXTT28=
PLAYORDER=
